<?xml version="1.0" standalone="no"?>
<!DOCTYPE svg PUBLIC "-//W3C//DTD SVG 20010904//EN"
 "http://www.w3.org/TR/2001/REC-SVG-20010904/DTD/svg10.dtd">
<svg version="1.0" xmlns="http://www.w3.org/2000/svg"
 width="342.000000pt" height="500.000000pt" viewBox="0 0 342.000000 500.000000"
 preserveAspectRatio="xMidYMid meet">

<g transform="translate(0.000000,500.000000) scale(0.100000,-0.100000)"
fill="#000000" stroke="none">
<path d="M0 2500 l0 -2500 608 0 c515 1 604 3 589 14 -13 10 -14 15 -5 18 7 3
20 -5 30 -16 l17 -21 21 23 c12 13 25 20 29 16 3 -4 0 -9 -7 -11 -21 -8 -13
-21 14 -20 14 0 28 6 31 13 3 8 10 11 17 7 6 -4 5 1 -2 10 -8 9 -17 16 -20 15
-28 -3 -44 3 -36 15 5 7 2 6 -6 -3 -16 -16 -40 -24 -40 -14 0 3 8 13 18 22 9
10 13 14 8 10 -19 -15 -28 -8 -22 18 4 15 3 23 -3 20 -5 -3 -12 0 -15 6 -3 7
-3 3 -1 -9 3 -12 1 -25 -6 -28 -8 -6 -8 -9 1 -15 8 -5 7 -9 -5 -13 -9 -4 -13
-3 -10 3 3 6 2 10 -3 10 -6 0 -13 8 -17 18 -4 12 3 25 26 45 18 15 29 27 23
27 -5 0 -15 -5 -22 -12 -9 -9 -15 -9 -23 -1 -8 8 -3 13 20 18 40 9 56 -1 39
-23 -12 -16 -11 -16 6 -2 18 13 19 13 14 0 -4 -11 0 -16 13 -17 16 -2 17 1 8
19 -9 16 -8 23 2 29 10 6 10 9 2 9 -6 0 -14 -4 -18 -9 -3 -6 -17 -4 -32 4 -15
8 -30 11 -33 7 -3 -5 -20 -9 -37 -10 -23 -2 -33 2 -33 12 0 9 7 13 20 11 11
-2 22 0 25 6 6 8 -16 14 -38 10 -5 -1 -5 8 -2 20 5 16 3 20 -6 16 -8 -2 -13
-9 -12 -15 2 -6 -4 -9 -12 -6 -19 8 -19 23 0 30 8 4 15 10 15 16 0 5 -5 6 -10
3 -6 -3 -10 -1 -10 5 0 7 7 10 15 6 8 -3 15 -1 15 4 0 13 -37 13 -42 0 -2 -6
-8 -2 -15 8 -10 17 -8 18 14 14 18 -3 24 -1 19 7 -4 6 -11 9 -16 6 -5 -3 -8
10 -7 30 1 21 7 35 15 35 17 0 12 55 -5 56 -7 1 -17 2 -23 3 -5 0 -10 9 -10
19 1 16 1 16 10 0 6 -10 18 -14 30 -11 12 3 20 0 20 -7 0 -10 3 -10 15 0 12
10 15 9 15 -8 0 -13 8 -21 25 -24 22 -5 24 -3 19 21 -6 23 -5 24 9 11 20 -20
32 -60 18 -60 -6 0 -11 -9 -11 -19 0 -12 -9 -21 -26 -25 -16 -4 -30 -19 -40
-42 -18 -43 -13 -52 24 -46 17 2 33 -1 37 -9 5 -7 4 -10 -2 -6 -6 4 -14 0 -17
-9 -12 -33 19 -7 37 30 12 25 23 36 32 32 8 -3 15 -1 15 4 0 6 -12 10 -27 10
-14 0 -24 -3 -20 -6 11 -11 -17 -30 -45 -30 -19 0 -26 5 -25 18 1 12 5 14 11
8 15 -15 26 -12 26 6 0 8 -4 12 -10 9 -6 -3 -7 1 -4 10 7 17 44 17 56 0 4 -6
8 -2 8 8 0 9 -4 17 -10 17 -5 0 -10 5 -10 11 0 5 4 7 10 4 6 -3 7 1 4 10 -5
13 -2 15 21 9 21 -5 26 -4 23 7 -3 8 -10 13 -16 12 -5 -1 -15 4 -22 12 -9 11
-7 12 9 8 22 -6 29 12 9 20 -7 3 1 6 17 6 20 1 26 4 17 10 -21 13 11 33 41 26
18 -5 26 -2 31 12 4 10 2 19 -4 21 -8 3 -7 8 1 18 15 19 30 18 23 -1 -4 -8 -2
-15 4 -15 6 0 12 5 14 11 2 6 12 7 27 1 20 -7 21 -10 8 -15 -10 -4 -17 -1 -17
6 0 7 -7 3 -15 -7 -8 -10 -12 -23 -9 -27 3 -5 0 -10 -5 -10 -31 -4 -81 -30
-81 -42 0 -5 11 -2 25 7 19 12 30 14 43 7 12 -8 13 -10 3 -11 -9 0 -6 -7 9
-20 22 -19 23 -20 2 -20 -11 0 -22 -4 -24 -9 -2 -5 -10 -2 -18 7 -13 14 -12
15 4 9 11 -5 16 -3 14 5 -6 17 -36 18 -50 1 -11 -14 -13 -13 -18 8 -5 20 -7
21 -13 7 -3 -10 0 -24 8 -32 23 -22 8 -49 -24 -42 -22 4 -21 3 6 -9 24 -11 31
-20 28 -35 -4 -22 27 -45 51 -36 8 3 14 1 14 -3 0 -5 13 -8 29 -7 20 1 27 -2
24 -11 -6 -16 -19 -17 -28 -3 -5 8 -11 7 -21 -1 -8 -6 -14 -7 -14 -2 0 5 -7
10 -15 10 -8 0 -15 -4 -15 -9 0 -4 7 -8 15 -8 8 0 15 -7 15 -16 0 -8 5 -12 10
-9 6 4 8 11 5 16 -8 12 6 11 25 -1 9 -5 19 -5 28 2 9 8 16 8 25 -1 9 -10 8
-11 -5 -6 -13 5 -18 2 -18 -10 0 -11 -5 -15 -15 -11 -23 8 -45 -4 -45 -26 0
-14 5 -18 19 -13 10 3 26 3 35 -1 20 -8 21 -34 1 -34 -8 0 -12 6 -9 14 4 10 0
13 -13 11 -10 -2 -20 -4 -23 -4 -3 -1 2 -6 10 -11 12 -7 11 -13 -10 -34 -25
-28 -40 -33 -40 -15 0 6 9 13 20 16 18 5 30 25 13 22 -19 -3 -33 2 -33 11 0 5
7 7 15 4 8 -4 15 -1 15 6 0 6 -5 8 -10 5 -7 -4 -9 2 -5 18 4 15 2 28 -5 32 -9
5 -10 1 -5 -16 7 -21 6 -22 -9 -10 -11 9 -14 21 -10 35 6 20 6 20 -12 3 -19
-18 -18 -19 3 -36 24 -20 21 -31 -11 -31 -17 0 -18 -2 -6 -9 8 -6 17 -8 21 -5
4 2 13 -3 20 -12 11 -13 11 -15 -2 -14 -28 4 -49 0 -49 -10 0 -6 7 -10 16 -8
10 2 19 -3 21 -10 3 -8 -2 -10 -14 -6 -14 5 -15 4 -4 -4 9 -6 23 -7 36 -2 14
5 27 4 34 -3 19 -19 12 -27 -14 -17 -20 8 -23 6 -18 -6 4 -10 14 -14 27 -12
25 5 54 -17 33 -25 -7 -3 41 -6 106 -6 92 -1 117 2 111 12 -6 9 -4 9 7 -1 7
-6 20 -12 28 -12 13 0 13 2 3 9 -10 6 -7 12 12 24 24 16 25 16 19 0 -4 -10 -2
-14 4 -10 16 10 23 47 8 41 -6 -3 -21 8 -31 23 -19 28 -28 67 -13 58 4 -3 10
-1 14 5 3 5 -6 15 -20 20 -32 12 -38 12 -31 1 4 -5 0 -12 -6 -14 -8 -4 -7 -6
4 -6 9 -1 15 -8 14 -16 -3 -21 -13 -28 -26 -20 -9 6 -9 10 1 16 8 5 9 9 3 9
-6 0 -11 14 -12 30 -1 26 2 30 19 25 11 -4 19 -2 19 5 0 6 -5 8 -12 4 -8 -5
-9 0 -6 14 4 12 2 24 -3 27 -9 6 -7 40 3 50 5 5 22 -52 20 -66 -1 -4 8 -4 20
-1 l21 5 -21 18 c-22 17 -32 46 -12 34 6 -3 10 -2 10 3 0 6 -7 13 -16 16 -8 3
-13 10 -9 15 3 5 0 13 -6 17 -7 4 -9 3 -5 -4 3 -6 2 -13 -4 -17 -5 -3 -10 -1
-10 5 0 6 -10 2 -22 -10 -16 -15 -24 -17 -30 -8 -6 10 -8 10 -8 1 0 -7 -7 -13
-16 -13 -9 0 -12 -5 -8 -12 4 -7 3 -9 -1 -5 -15 13 -14 36 1 30 8 -3 14 1 14
11 0 9 5 16 10 16 12 0 13 47 1 54 -14 9 -21 -6 -9 -21 20 -24 -11 -45 -55
-36 l-36 8 20 25 c10 14 17 17 13 8 -6 -19 31 -45 41 -28 3 5 -2 10 -12 10
-10 0 -14 3 -8 8 19 12 12 57 -7 56 -10 -1 -16 2 -13 6 7 12 45 19 45 9 0 -6
8 -9 18 -7 11 2 16 -3 14 -12 -2 -13 -1 -13 10 0 19 22 53 22 73 0 21 -24 32
-25 32 -5 0 8 -4 12 -9 9 -10 -7 -39 21 -31 30 3 3 11 2 17 -3 6 -4 21 -11 33
-13 19 -5 20 -4 10 13 -7 11 -13 15 -15 9 -2 -6 -10 -7 -22 0 -13 7 -28 7 -46
0 -16 -6 -30 -7 -33 -2 -3 5 -16 12 -28 16 -13 4 -23 14 -23 23 0 8 6 13 13
10 8 -3 14 3 14 14 1 10 -2 19 -6 19 -15 0 -31 -26 -33 -52 -3 -32 -31 -31
-33 1 -1 13 3 20 10 17 6 -2 12 2 12 10 0 17 -37 19 -38 2 0 -7 -4 -4 -8 7 -5
11 -5 28 0 37 10 19 -28 68 -48 61 -6 -2 -15 1 -19 8 -4 8 -3 9 4 5 7 -4 12
-3 12 3 0 16 -20 24 -33 12 -9 -7 -17 -7 -27 1 -12 8 -12 9 2 4 10 -3 20 -1
23 4 4 6 0 10 -9 10 -8 0 -17 6 -19 13 -4 9 -6 9 -6 0 -1 -7 -9 -13 -18 -13
-12 0 -14 3 -6 11 14 14 5 49 -14 49 -8 0 -12 4 -8 9 3 6 -3 9 -14 8 -11 0
-17 -6 -14 -12 4 -5 3 -7 -2 -3 -4 4 -15 2 -24 -5 -10 -8 -8 1 7 26 l21 37
-23 0 c-30 0 -29 34 0 37 18 3 18 2 -1 -6 -22 -11 -21 -12 18 -17 28 -3 38 13
13 22 -8 3 -12 13 -9 22 4 15 3 15 -6 2 -9 -12 -14 -13 -28 -2 -10 7 -29 17
-43 22 -15 6 -26 19 -27 32 -1 12 -8 25 -15 30 -10 7 -10 9 2 5 22 -6 38 15
35 45 -2 20 1 25 11 21 10 -4 12 -13 8 -27 -6 -18 -5 -19 8 -8 13 10 22 10 52
-5 34 -16 40 -28 39 -70 -1 -21 14 -15 20 7 3 11 1 20 -4 20 -5 0 -9 4 -9 10
0 5 7 7 15 4 9 -4 15 -11 14 -18 -3 -27 2 -38 16 -32 8 3 15 1 15 -5 0 -6 5
-7 10 -4 15 9 1 27 -16 21 -14 -5 -28 7 -18 16 10 11 96 -22 113 -43 14 -17
20 -19 26 -9 5 8 4 11 -3 6 -6 -3 -14 -1 -18 5 -5 9 4 10 32 4 21 -4 45 -8 52
-9 8 -1 17 -8 22 -15 5 -9 10 -10 14 -2 4 6 14 8 24 3 28 -12 228 -4 337 14
73 12 73 24 0 18 -128 -12 -257 -6 -355 16 -52 11 -104 22 -115 24 -11 2 -22
5 -25 6 -3 2 -9 4 -15 5 -58 13 -75 19 -75 27 0 6 -7 8 -15 5 -8 -4 -17 -2
-20 4 -4 5 -10 7 -15 4 -4 -3 -11 2 -14 10 -3 8 -9 14 -13 14 -13 -3 -43 13
-43 22 0 5 13 3 30 -6 36 -18 44 -19 37 -2 -3 8 1 14 8 14 10 0 11 -5 5 -18
-9 -16 2 -24 45 -29 6 -1 15 -5 20 -10 10 -7 152 -43 245 -60 156 -30 430 9
570 82 54 27 187 145 182 160 -1 5 4 8 12 8 8 0 12 9 11 24 -4 36 -15 66 -25
66 -4 0 -10 7 -14 15 -4 12 -2 13 14 2 11 -6 20 -15 20 -18 0 -4 7 -10 16 -13
8 -3 12 -2 9 4 -3 6 -4 10 0 10 20 0 156 -43 203 -65 91 -42 242 -137 235
-148 -3 -6 -1 -7 5 -3 6 3 39 -8 73 -26 52 -27 73 -47 124 -115 33 -45 78
-115 100 -155 21 -40 69 -113 105 -163 36 -49 83 -117 103 -150 l37 -59 0
2322 0 2322 -1710 0 -1710 0 0 -2500z m2127 1075 c24 -9 50 -26 59 -38 10 -14
18 -18 21 -10 5 14 31 6 58 -19 89 -81 102 -98 132 -174 18 -44 37 -109 42
-143 6 -35 15 -69 22 -77 6 -8 8 -14 4 -14 -4 0 -1 -7 6 -17 11 -12 13 -46 11
-136 -1 -71 4 -157 13 -213 24 -149 20 -222 -14 -287 -16 -30 -36 -78 -46
-108 -19 -59 -73 -171 -111 -231 -13 -21 -36 -80 -51 -131 -32 -114 -54 -160
-91 -186 -43 -30 -115 -19 -228 35 -126 61 -166 113 -258 336 -32 77 -37 99
-41 199 -4 95 -8 116 -25 134 -11 12 -20 25 -20 30 0 5 -6 16 -14 24 -7 9 -28
43 -46 76 -18 33 -41 70 -52 81 -24 27 -34 100 -17 132 10 18 10 27 1 42 -16
26 -15 45 4 64 18 19 99 23 88 5 -7 -12 12 -29 33 -29 6 0 18 6 25 13 15 15
78 31 78 19 0 -4 20 -7 45 -7 34 0 47 4 51 18 7 24 19 21 32 -7 10 -23 52 -43
52 -25 0 17 -27 63 -49 83 -12 11 -21 14 -21 9 0 -8 -12 -8 -40 -1 -22 6 -37
15 -34 20 4 6 -11 7 -39 3 -56 -9 -120 17 -109 43 21 56 71 67 192 43 110 -21
157 -25 165 -11 9 14 -30 49 -55 50 -8 0 -28 7 -44 15 -15 8 -33 12 -38 9 -6
-4 -27 -2 -47 4 -20 6 -49 14 -64 17 -15 3 -25 10 -22 15 3 5 -4 7 -15 5 -17
-3 -19 0 -16 21 4 20 2 23 -11 15 -32 -18 -60 4 -54 42 0 4 -3 7 -8 7 -6 0 -3
12 4 27 8 15 12 38 9 50 -4 14 -2 23 5 23 22 0 26 3 43 31 9 15 39 38 67 51
28 12 51 27 51 32 0 15 34 35 61 36 14 0 29 4 35 9 22 22 210 19 271 -4z m-67
-1944 c0 -105 12 -168 34 -183 6 -4 45 -8 87 -8 l76 0 31 -44 c18 -25 35 -60
39 -78 3 -18 17 -47 30 -64 14 -20 23 -45 23 -68 0 -32 -9 -46 -57 -97 -71
-74 -129 -114 -202 -135 -63 -19 -194 -43 -200 -38 -8 7 6 15 35 20 16 3 47
14 70 24 22 11 46 20 52 20 7 0 12 3 12 8 0 4 -27 8 -60 9 -33 2 -60 -2 -60
-7 0 -5 -7 -7 -15 -4 -8 4 -12 10 -9 15 6 11 -10 12 -20 2 -4 -5 -40 -9 -79
-9 -40 -1 -79 -4 -87 -7 -19 -7 -61 -4 -77 6 -8 5 -13 3 -13 -4 0 -7 -8 -5
-20 6 -20 18 -21 18 -14 -1 3 -11 2 -15 -3 -9 -4 6 -18 16 -30 23 -20 11 -23
10 -23 -5 0 -15 -2 -16 -10 -3 -5 8 -14 15 -19 15 -6 0 -17 9 -26 20 l-15 20
6 -20 7 -20 -16 20 c-9 11 -17 16 -17 11 0 -5 -7 -3 -15 4 -12 10 -15 10 -15
-1 0 -8 -9 -4 -21 11 -11 14 -17 19 -13 11 5 -10 3 -12 -7 -5 -8 5 -18 9 -23
9 -5 0 -11 7 -13 15 -4 13 -3 13 6 0 8 -11 11 -12 11 -2 0 8 5 10 13 6 6 -4 9
-4 5 0 -3 4 -10 8 -15 8 -4 0 -13 4 -20 9 -7 7 -14 6 -19 -2 -5 -8 -3 -9 6 -4
9 6 11 4 6 -4 -6 -9 -13 -8 -29 6 -11 10 -17 12 -12 4 6 -10 4 -12 -4 -7 -7 5
-10 14 -7 22 6 16 -10 29 -19 14 -4 -6 -11 -8 -16 -4 -5 3 -7 9 -5 13 3 4 -1
8 -9 8 -8 0 -11 -5 -8 -10 3 -6 -5 -2 -19 9 -14 10 -24 22 -21 26 2 4 -3 5
-11 2 -9 -3 -18 0 -21 8 -3 8 -14 14 -24 15 -44 3 -248 144 -236 163 3 5 1 11
-5 15 -5 3 -10 14 -10 22 0 13 6 11 28 -9 48 -45 83 -62 121 -60 30 2 43 -3
66 -28 24 -25 26 -30 10 -25 -11 3 -3 -3 18 -15 22 -12 41 -19 45 -16 3 3 0 6
-7 6 -7 0 0 11 15 25 15 14 33 25 42 25 8 0 12 6 9 13 -3 7 1 21 9 31 7 11 11
24 7 30 -3 6 -3 8 2 4 4 -4 13 -2 19 5 15 18 122 64 168 72 31 6 41 3 60 -17
13 -13 31 -39 40 -56 19 -35 50 -42 83 -18 17 12 17 16 5 31 -22 26 -20 73 3
79 10 2 16 9 12 15 -3 7 2 11 15 11 11 0 23 7 26 15 3 8 14 17 23 20 10 3 23
16 29 30 6 13 31 34 54 46 52 26 85 55 104 92 13 25 19 27 74 27 l60 0 0 -109z
m-1215 -333 c39 -34 260 -167 288 -174 4 -1 9 -2 12 -3 3 0 6 0 8 2 2 1 22
-13 45 -31 23 -19 42 -30 42 -25 0 4 5 0 11 -10 6 -9 14 -15 19 -12 5 3 14 -4
20 -15 10 -19 10 -20 -7 -10 -61 37 -128 74 -198 111 -99 52 -234 139 -259
168 -25 27 -13 27 19 -1z m365 -270 c0 -6 -6 -5 -15 2 -8 7 -15 14 -15 16 0 2
7 1 15 -2 8 -4 15 -11 15 -16z m166 -40 c3 -4 -1 -5 -10 -4 -8 1 -18 5 -22 8
-3 4 1 5 10 4 8 -1 18 -5 22 -8z m-676 -12 c0 -3 -4 -8 -10 -11 -5 -3 -10 -1
-10 4 0 6 5 11 10 11 6 0 10 -2 10 -4z m440 -31 c-14 -17 -30 -20 -30 -4 0 5
4 8 9 4 5 -3 12 -1 16 5 3 5 9 10 12 10 3 0 0 -7 -7 -15z m770 -25 c0 -5 -5
-10 -11 -10 -5 0 -7 5 -4 10 3 6 8 10 11 10 2 0 4 -4 4 -10z m-35 -10 c-3 -5
-16 -10 -28 -9 -20 1 -20 2 3 9 14 4 26 8 28 9 2 1 0 -3 -3 -9z m-749 -29 c-4
-6 -15 -11 -24 -10 -11 0 -12 3 -4 6 6 2 12 12 12 21 0 12 3 13 11 5 6 -6 8
-16 5 -22z m-46 15 c0 -2 -8 -10 -17 -17 -16 -13 -17 -12 -4 4 13 16 21 21 21
13z m117 -49 c12 1 24 -4 27 -13 3 -8 2 -12 -4 -9 -6 3 -10 2 -10 -3 0 -6 -7
-13 -16 -16 -13 -5 -14 -3 -6 6 7 10 4 18 -14 31 -25 19 -33 11 -11 -12 10
-11 9 -12 -3 -5 -34 19 -39 28 -22 47 14 16 16 16 27 -5 7 -15 19 -22 32 -21z
m-91 -2 l28 -14 -49 1 c-44 1 -47 2 -30 14 23 17 17 17 51 -1z m-360 -24 c-6
-9 -46 -22 -46 -15 0 3 10 9 23 14 29 11 29 11 23 1z m-56 -5 c0 -3 -4 -8 -10
-11 -5 -3 -10 -1 -10 4 0 6 5 11 10 11 6 0 10 -2 10 -4z m426 -11 c-3 -8 0
-15 6 -15 6 0 9 -3 5 -6 -3 -3 -14 -1 -24 5 -11 6 -13 11 -5 11 7 0 10 5 7 10
-3 6 -1 10 5 10 7 0 10 -7 6 -15z m-471 -25 c-3 -5 -12 -10 -18 -10 -7 0 -6 4
3 10 19 12 23 12 15 0z m579 -7 c7 -17 -4 -16 -28 2 -18 13 -18 14 3 12 11 -1
23 -7 25 -14z m-144 -21 c6 -4 -22 -22 -34 -22 -5 0 -6 3 -3 6 3 4 2 15 -4 26
-9 17 -8 18 13 6 13 -7 25 -14 28 -16z m-420 8 c0 -5 -5 -10 -11 -10 -5 0 -7
5 -4 10 3 6 8 10 11 10 2 0 4 -4 4 -10z m58 -2 c-5 -13 -38 -20 -38 -8 0 5 8
11 18 13 9 3 19 5 20 6 2 0 2 -4 0 -11z m486 -3 c3 -8 12 -12 21 -9 18 7 19
-3 2 -33 -9 -16 -16 -20 -27 -13 -13 9 -13 11 0 20 13 8 13 12 -4 27 -13 13
-20 15 -23 5 -3 -6 -9 -10 -14 -6 -5 3 -9 -1 -9 -9 0 -8 -8 -18 -17 -22 -14
-5 -15 -4 -6 6 10 10 10 16 0 28 -9 11 -9 13 0 8 6 -4 14 -4 17 1 8 14 54 12
60 -3z m-133 -59 c-13 -32 -37 -34 -43 -3 -4 20 -1 23 19 19 14 -3 23 0 23 9
0 7 2 10 5 7 3 -3 1 -17 -4 -32z m53 4 c12 0 27 5 34 10 6 6 0 -3 -15 -18 -24
-26 -28 -27 -44 -14 -10 9 -14 22 -11 36 5 18 7 18 10 4 2 -11 13 -18 26 -18z
m-398 2 c-3 -3 -1 -11 5 -19 9 -9 8 -17 0 -27 -8 -9 -8 -21 -2 -37 5 -13 10
-20 10 -16 1 5 6 5 12 1 8 -4 7 -9 -2 -16 -11 -7 -11 -11 -1 -15 20 -8 14 -26
-8 -20 -11 3 -18 1 -14 -4 3 -5 11 -9 19 -9 18 0 9 -67 -12 -91 -13 -15 -12
-17 3 -15 9 0 19 -5 22 -13 3 -9 0 -11 -8 -6 -7 4 -16 2 -20 -6 -12 -19 -1
-32 15 -19 12 10 13 6 5 -20 -5 -18 -14 -38 -20 -45 -8 -9 -6 -14 5 -19 8 -3
15 -11 15 -18 0 -9 -3 -8 -10 2 -9 13 -14 7 -11 -12 0 -5 -3 -8 -9 -8 -5 0 -6
-7 -3 -17 4 -10 2 -14 -5 -9 -6 3 -13 2 -17 -4 -3 -5 -1 -10 4 -10 6 0 11 -5
11 -11 0 -8 -4 -9 -13 0 -8 6 -17 7 -22 3 -4 -4 -2 3 4 16 6 12 8 22 3 22 -5
0 -9 7 -9 15 0 8 4 15 8 15 11 0 5 34 -8 43 -19 12 -16 37 5 38 11 0 12 2 4 6
-10 4 -10 8 -1 19 8 10 8 14 0 14 -6 0 -11 7 -11 15 0 8 -7 15 -15 15 -8 0
-15 5 -15 10 0 6 7 10 16 10 23 0 6 20 -19 21 -17 1 -18 2 -4 6 9 2 17 14 17
25 0 16 -5 19 -22 15 l-23 -6 22 17 c17 14 20 25 18 59 -3 34 0 43 15 48 16 5
17 9 8 25 -7 10 -17 16 -23 12 -5 -3 -4 2 3 10 8 9 19 15 27 12 7 -3 16 -1 19
5 4 6 13 8 22 4 8 -3 12 -8 10 -11z m597 -6 c4 -9 -2 -11 -20 -8 l-26 5 22
-22 c11 -11 27 -21 34 -21 9 0 9 -3 -1 -9 -10 -6 -7 -10 12 -15 15 -4 25 -10
23 -14 -2 -4 5 -15 16 -25 19 -19 19 -18 12 2 -4 12 -2 21 4 21 6 0 11 -5 11
-11 0 -5 4 -8 9 -5 5 4 17 3 26 0 13 -5 14 -8 3 -15 -10 -7 -10 -9 0 -9 6 0
12 -7 12 -15 0 -22 -15 -18 -28 8 -8 16 -11 18 -11 6 -1 -12 -9 -16 -26 -15
-14 0 -25 5 -25 9 0 5 -4 6 -9 3 -5 -4 -11 -2 -13 3 -1 5 -12 -2 -22 -17 -11
-14 -15 -22 -9 -19 6 4 16 1 22 -7 8 -10 5 -16 -16 -25 -23 -11 -25 -10 -14 3
10 12 9 14 -8 9 -11 -3 -18 -10 -15 -17 7 -18 -37 -35 -64 -25 -19 7 -25 5
-29 -11 -3 -11 -9 -18 -13 -15 -5 3 -6 14 -3 25 3 12 -1 22 -11 26 -9 3 -16
12 -16 20 0 14 -34 37 -43 28 -3 -3 -8 1 -13 8 -4 7 -3 10 1 5 8 -7 45 20 45
33 0 18 -31 17 -55 -2 -14 -11 -24 -16 -23 -11 2 4 -7 19 -19 32 -13 14 -22
25 -20 26 1 1 16 9 33 17 30 14 30 14 26 -7 -6 -32 28 -43 36 -13 6 23 6 23
12 -2 4 -14 12 -24 18 -23 12 3 4 -28 -10 -38 -4 -3 5 -21 22 -40 16 -18 29
-28 30 -21 0 6 -4 12 -10 12 -5 0 -10 7 -10 15 0 8 5 15 10 15 6 0 10 -3 10
-7 0 -5 16 -9 36 -10 30 -1 33 1 23 13 -10 12 -9 13 5 8 9 -3 16 -1 16 5 0 6
6 11 13 11 6 0 19 5 27 10 13 9 13 11 0 20 -21 14 -27 12 -33 -9 -3 -11 -16
-20 -36 -23 -26 -4 -31 -1 -30 16 0 12 3 15 6 9 8 -22 21 -14 19 11 0 13 -4
22 -8 19 -5 -2 -8 1 -8 7 0 7 -6 10 -12 7 -7 -2 -12 -15 -10 -29 2 -16 -3 -28
-13 -31 -12 -5 -14 -1 -10 22 4 25 2 28 -15 24 -11 -3 -20 -1 -20 4 0 13 89
33 96 22 3 -5 13 -5 23 1 10 5 22 6 26 2 5 -4 5 -1 1 6 -4 7 -15 11 -24 10
-29 -5 -25 27 5 38 31 12 49 8 56 -10z m-89 -24 c2 -4 -4 -9 -15 -9 -10 -1
-19 2 -19 8 0 11 27 12 34 1z m-906 -57 c1 -13 -2 -26 -6 -29 -9 -5 -13 21 -6
42 5 19 9 15 12 -13z m442 15 c0 -5 -5 -10 -11 -10 -5 0 -7 5 -4 10 3 6 8 10
11 10 2 0 4 -4 4 -10z m240 6 c0 -2 -7 -7 -16 -10 -8 -3 -12 -2 -9 4 6 10 25
14 25 6z m-638 -45 c-4 -11 -7 -10 -13 5 -12 29 -10 36 5 22 7 -7 11 -19 8
-27z m416 9 c-7 -10 -14 -18 -15 -16 -6 6 9 36 18 36 5 0 4 -9 -3 -20z m254
-34 c-2 -12 1 -15 9 -11 7 5 10 3 7 -5 -2 -8 -10 -16 -18 -18 -9 -3 -11 3 -8
21 4 18 0 28 -11 31 -10 3 -8 4 4 3 13 -2 19 -9 17 -21z m-670 -21 c-3 -19
-10 -25 -31 -24 -23 0 -24 1 -6 9 18 8 18 9 2 9 -10 1 -16 5 -12 11 3 5 12 7
20 3 8 -3 15 0 15 6 0 6 4 11 9 11 4 0 6 -11 3 -25z m625 -7 c-3 -8 -6 -5 -6
6 -1 11 2 17 5 13 3 -3 4 -12 1 -19z m-587 -3 c0 -12 -19 -12 -23 0 -4 9 -1
12 9 8 7 -3 14 -7 14 -8z m739 -54 c-1 -12 -2 -12 -6 2 -2 9 -9 15 -14 11 -5
-3 -7 -9 -5 -13 3 -4 -4 -7 -14 -8 -10 -1 -21 5 -24 12 -3 10 0 12 12 8 9 -3
14 -3 10 1 -4 5 -1 14 5 21 10 11 14 11 25 -3 6 -8 11 -23 11 -31z m-369 13
c0 -8 -4 -14 -10 -14 -5 0 -10 9 -10 21 0 11 5 17 10 14 6 -3 10 -13 10 -21z
m292 18 c-6 -2 -10 -7 -7 -11 2 -5 -7 -6 -20 -3 -36 6 -31 19 8 19 17 0 26 -2
19 -5z m-922 -12 c0 -5 -5 -10 -11 -10 -5 0 -7 5 -4 10 3 6 8 10 11 10 2 0 4
-4 4 -10z m255 0 c-3 -5 -14 -8 -25 -7 -24 2 -18 12 9 14 12 1 19 -2 16 -7z
m1025 -10 c0 -5 5 -10 11 -10 5 0 7 5 4 10 -8 13 5 13 25 0 13 -8 13 -11 1
-22 -10 -10 -12 -10 -7 0 4 6 2 12 -3 12 -6 0 -11 -8 -12 -17 0 -10 -3 -13 -5
-7 -3 6 -17 10 -32 8 -15 -2 -19 -1 -9 2 11 3 16 12 13 20 -3 8 -1 14 4 14 6
0 10 -4 10 -10z m-1060 -14 c0 -11 -19 -15 -25 -6 -3 5 1 10 9 10 9 0 16 -2
16 -4z m26 -7 c-13 -8 -15 -13 -6 -19 8 -5 7 -9 -4 -13 -9 -4 -16 -1 -16 6 0
16 20 37 35 37 5 0 2 -5 -9 -11z m534 -9 c0 -5 -5 -10 -11 -10 -5 0 -7 5 -4
10 3 6 8 10 11 10 2 0 4 -4 4 -10z m120 -10 c0 -5 -5 -10 -11 -10 -5 0 -7 5
-4 10 3 6 8 10 11 10 2 0 4 -4 4 -10z m526 -6 c17 -14 17 -15 1 -10 -10 3 -23
6 -28 6 -5 0 -9 5 -9 10 0 14 13 12 36 -6z m-1236 -4 c0 -5 -5 -10 -11 -10 -5
0 -7 5 -4 10 3 6 8 10 11 10 2 0 4 -4 4 -10z m1104 -17 c4 -9 4 -18 2 -21 -7
-6 -36 24 -36 37 0 15 27 2 34 -16z m31 17 c-3 -5 -12 -10 -18 -10 -7 0 -6 4
3 10 19 12 23 12 15 0z m-372 -13 c4 3 7 1 7 -5 0 -17 -16 -15 -31 6 -12 15
-12 16 2 5 9 -7 19 -10 22 -6z m377 -17 c0 -5 -4 -10 -10 -10 -5 0 -10 5 -10
10 0 6 5 10 10 10 6 0 10 -4 10 -10z m-406 -8 c2 -4 -4 -8 -15 -8 -10 0 -19 4
-19 8 0 4 6 8 14 8 8 0 17 -4 20 -8z m277 -32 c-11 -7 -10 -40 1 -34 4 3 8 1
8 -4 0 -6 -7 -12 -15 -16 -10 -4 -15 1 -15 15 0 13 -4 18 -12 13 -10 -6 -10
-4 0 7 6 7 12 24 12 38 0 24 1 24 14 5 8 -10 11 -21 7 -24z m114 -1 c-10 -15
-25 -10 -19 6 4 8 10 12 15 9 5 -3 7 -10 4 -15z m-1060 1 c-3 -5 -12 -10 -18
-10 -7 0 -6 4 3 10 19 12 23 12 15 0z m1021 -1 c3 -6 -3 -21 -15 -32 -12 -12
-21 -16 -21 -9 0 7 -7 12 -15 12 -8 0 -15 4 -15 9 0 13 28 22 35 11 4 -6 11
-10 17 -10 7 0 6 6 -2 15 -8 9 -9 15 -2 15 6 0 14 -5 18 -11z m21 -41 c-3 -8
-6 -5 -6 6 -1 11 2 17 5 13 3 -3 4 -12 1 -19z m-21 -14 c-5 -13 -1 -15 19 -12
34 7 27 -14 -8 -23 -16 -4 -33 -2 -44 6 -13 10 -22 10 -31 3 -7 -6 -15 -8 -19
-4 -3 3 -1 6 6 6 7 0 9 5 5 11 -5 9 1 10 20 5 19 -5 28 -2 32 9 4 8 11 15 16
15 6 0 7 -7 4 -16z m-436 -8 c0 -2 -7 -6 -15 -10 -8 -3 -15 -1 -15 4 0 6 7 10
15 10 8 0 15 -2 15 -4z m580 -36 c0 -5 -5 -10 -11 -10 -5 0 -7 5 -4 10 3 6 8
10 11 10 2 0 4 -4 4 -10z m40 6 c0 -11 -19 -15 -25 -6 -3 5 1 10 9 10 9 0 16
-2 16 -4z m-593 -38 c-3 -8 -6 -5 -6 6 -1 11 2 17 5 13 3 -3 4 -12 1 -19z
m602 -10 c0 -13 -3 -18 -5 -11 -3 7 -13 9 -22 6 -13 -4 -12 -2 3 10 26 21 25
21 24 -5z m-112 -4 c-3 -3 -12 -4 -19 -1 -8 3 -5 6 6 6 11 1 17 -2 13 -5z
m-97 -34 c0 -5 -5 -10 -11 -10 -5 0 -7 5 -4 10 3 6 8 10 11 10 2 0 4 -4 4 -10z
m188 -2 c-4 -12 -22 -12 -26 0 -1 5 4 9 13 9 9 0 14 -4 13 -9z m-881 -23 c0
-17 -13 -20 -21 -6 -4 5 0 12 6 14 7 3 13 6 14 6 0 1 1 -6 1 -14z m838 -10 c0
-10 -7 -20 -15 -22 -12 -4 -12 -3 -2 5 8 5 14 13 14 17 0 4 -6 12 -14 17 -10
8 -10 9 2 5 8 -2 15 -12 15 -22z m-38 -17 c-3 -8 -6 -5 -6 6 -1 11 2 17 5 13
3 -3 4 -12 1 -19z m-332 -9 c-3 -4 -12 -6 -21 -2 -12 4 -13 1 -4 -22 8 -21 8
-31 -1 -39 -9 -8 -10 -7 -6 7 4 9 2 17 -2 17 -18 0 -21 33 -4 45 18 13 47 9
38 -6z m-480 2 c3 -5 0 -13 -6 -17 -7 -4 -9 -3 -5 4 3 5 0 13 -6 15 -9 4 -10
6 -1 6 6 1 14 -3 18 -8z m901 -36 c-3 -8 -1 -15 4 -15 6 0 10 -5 10 -11 0 -8
-4 -8 -14 1 -13 10 -12 40 1 40 3 0 3 -7 -1 -15z m-1158 -23 c-2 -8 -9 -17
-16 -18 -8 -2 -9 -1 -1 3 8 4 3 10 -11 18 l-23 13 27 0 c19 0 26 -5 24 -16z
m956 11 c4 -5 13 -8 19 -8 5 0 12 -6 15 -12 6 -20 -23 -15 -43 7 -17 18 -8 30
9 13z m273 -34 c-8 -13 -15 -15 -29 -8 -10 5 -18 12 -18 15 0 3 4 3 8 0 4 -2
14 -1 22 5 12 7 11 9 -5 10 l-20 0 20 8 c25 10 37 -6 22 -30z m-192 -7 c-3 -3
-11 0 -18 7 -9 10 -8 11 6 5 10 -3 15 -9 12 -12z m-170 -11 c3 -5 1 -12 -5
-16 -5 -3 -10 1 -10 9 0 18 6 21 15 7z"/>
<path d="M2324 3129 c-17 -5 -37 -15 -43 -23 -10 -12 -6 -13 22 -6 19 4 40 10
46 14 7 4 9 1 5 -8 -7 -19 23 -28 61 -17 24 7 25 9 8 10 -39 2 -55 12 -42 27
14 17 -7 18 -57 3z"/>
<path d="M2325 2965 c-5 -2 -22 -6 -36 -9 -62 -13 -36 -65 33 -66 28 0 38 5
43 20 7 22 25 27 25 7 0 -8 11 -19 25 -25 29 -13 30 -11 10 28 -13 26 -28 34
-75 45 -8 2 -19 2 -25 0z"/>
<path d="M1986 2884 c-4 -9 -4 -19 -1 -22 3 -3 5 1 5 8 0 7 3 11 6 8 3 -3 1
-14 -5 -25 -35 -66 -50 -105 -49 -132 1 -16 -7 -43 -18 -58 -55 -82 -93 -161
-87 -182 11 -42 191 -53 261 -17 24 12 36 14 55 5 19 -9 30 -7 55 8 21 13 28
23 23 32 -7 10 -13 11 -31 1 -18 -9 -25 -9 -41 6 -10 9 -19 23 -19 30 0 7 -18
27 -40 44 -37 30 -40 35 -36 73 2 23 5 47 7 52 2 6 -4 24 -13 40 -8 17 -18 50
-22 75 -10 62 -36 90 -50 54z"/>
<path d="M1787 2345 c-37 -27 -30 -105 9 -105 7 0 41 -13 76 -29 42 -19 72
-28 91 -24 37 7 35 21 -3 15 -27 -4 -30 -2 -30 22 0 31 24 44 50 28 14 -9 20
-8 24 5 5 12 15 14 46 9 25 -4 40 -2 40 4 0 13 37 13 45 0 3 -5 12 -7 20 -3
10 3 20 -7 31 -32 11 -28 18 -35 27 -26 6 6 21 11 32 11 31 0 36 9 15 30 -29
29 -56 40 -87 35 -29 -5 -56 9 -64 34 -9 25 -78 29 -157 10 -37 -9 -59 -9 -75
-2 -60 28 -73 31 -90 18z m121 -112 c-4 -22 -22 -20 -26 1 -2 10 3 16 13 16
10 0 15 -7 13 -17z"/>
<path d="M1810 2184 c0 -31 38 -124 61 -146 28 -29 49 -36 49 -18 0 7 20 10
48 9 27 -1 54 1 60 5 7 4 12 3 12 -1 0 -13 68 -3 80 12 8 10 -1 14 -44 19 -50
7 -137 51 -158 81 -4 5 -8 6 -8 2 0 -4 -17 4 -37 18 -36 24 -63 32 -63 19z"/>
<path d="M2271 1244 c-47 -87 -141 -150 -279 -184 -42 -10 -68 -19 -57 -19 40
-1 136 28 203 60 70 34 122 87 150 152 19 46 9 41 -17 -9z"/>
<path d="M2083 1193 c-6 -21 -10 -39 -8 -41 7 -8 26 40 23 59 -2 15 -6 10 -15
-18z"/>
<path d="M1472 1066 c7 -8 15 -12 17 -11 5 6 -10 25 -20 25 -5 0 -4 -6 3 -14z"/>
<path d="M1570 1046 c0 -12 125 -29 202 -27 144 4 155 18 13 17 -71 -1 -149 2
-172 7 -24 4 -43 5 -43 3z"/>
<path d="M1045 690 c-3 -5 -1 -10 4 -10 6 0 11 5 11 10 0 6 -2 10 -4 10 -3 0
-8 -4 -11 -10z"/>
<path d="M698 673 c7 -3 16 -2 19 1 4 3 -2 6 -13 5 -11 0 -14 -3 -6 -6z"/>
<path d="M705 621 c-3 -5 -1 -12 5 -16 5 -3 10 1 10 9 0 18 -6 21 -15 7z"/>
<path d="M670 566 c0 -20 24 -21 40 -1 10 12 9 15 -4 15 -11 0 -14 -4 -10 -12
5 -9 2 -9 -9 1 -15 12 -17 11 -17 -3z"/>
<path d="M693 475 c0 -7 8 -10 19 -7 10 2 18 6 18 7 0 1 -8 5 -18 7 -11 3 -19
0 -19 -7z"/>
<path d="M1050 630 c0 -5 5 -10 11 -10 5 0 7 5 4 10 -3 6 -8 10 -11 10 -2 0
-4 -4 -4 -10z"/>
<path d="M1274 535 c-19 -20 -34 -31 -34 -25 0 5 -6 10 -14 10 -9 0 -12 -7 -9
-20 7 -27 29 -25 49 5 9 14 19 23 23 21 3 -2 11 7 18 20 15 33 7 30 -33 -11z"/>
<path d="M2449 1213 c-1 -5 -2 -25 -3 -45 -2 -21 -10 -46 -19 -56 -10 -10 -17
-22 -17 -26 0 -5 13 6 29 23 26 28 49 42 38 24 -3 -5 8 -9 23 -10 36 -3 49 24
18 36 -14 5 -18 10 -10 15 7 4 24 -2 38 -13 24 -19 24 -26 2 -22 -12 2 -10
-17 2 -24 6 -3 10 -1 10 5 0 7 6 10 14 7 8 -3 22 1 33 9 17 14 17 15 -6 8 -17
-4 -22 -3 -16 6 5 8 4 11 -3 7 -5 -4 -29 9 -52 28 -38 32 -79 46 -81 28z m39
-64 c-3 -9 -12 0 -22 21 l-18 35 22 -21 c12 -12 20 -28 18 -35z"/>
<path d="M1226 938 c-9 -12 -16 -16 -16 -9 0 11 -3 11 -15 1 -11 -9 -12 -15
-5 -20 6 -4 8 -14 4 -23 -5 -13 0 -17 18 -17 13 0 30 -6 37 -12 11 -11 12 -10
3 6 -7 15 -6 23 4 34 19 18 18 32 -3 32 -14 0 -15 2 -4 9 8 5 9 11 3 15 -6 3
-18 -4 -26 -16z"/>
<path d="M2965 941 c-3 -5 -1 -12 5 -16 5 -3 10 1 10 9 0 18 -6 21 -15 7z"/>
<path d="M1291 919 c-1 -9 -8 -20 -17 -23 -8 -3 -12 -11 -8 -17 4 -7 9 -7 13
-2 3 6 11 12 17 14 7 2 8 12 3 24 -6 15 -8 16 -8 4z"/>
<path d="M2110 899 c-60 -17 -62 -18 -20 -14 25 2 61 11 80 19 46 20 21 18
-60 -5z"/>
<path d="M1410 866 c0 -9 7 -12 21 -9 16 4 17 8 7 14 -19 13 -28 11 -28 -5z"/>
<path d="M1310 851 c0 -6 5 -11 11 -11 8 0 8 -4 1 -12 -13 -17 -10 -58 6 -83
7 -11 11 -13 9 -5 -2 8 6 22 17 32 12 10 16 17 9 18 -7 0 -13 -4 -13 -10 0 -5
-5 -10 -11 -10 -5 0 -8 4 -4 9 3 5 1 12 -5 16 -19 12 -10 22 15 17 14 -2 25 0
25 7 0 5 -7 8 -15 5 -11 -5 -14 -2 -9 12 4 11 4 16 -1 12 -4 -4 -14 -3 -22 3
-9 9 -13 8 -13 0z"/>
<path d="M1435 840 c3 -5 8 -10 11 -10 2 0 4 5 4 10 0 6 -5 10 -11 10 -5 0 -7
-4 -4 -10z"/>
<path d="M1505 830 c3 -5 8 -10 11 -10 2 0 4 5 4 10 0 6 -5 10 -11 10 -5 0 -7
-4 -4 -10z"/>
<path d="M1407 808 c-3 -12 -2 -29 3 -37 8 -14 9 -14 10 -1 0 9 3 11 8 5 4 -5
16 -10 27 -10 13 0 19 -6 19 -18 -2 -15 1 -16 13 -5 9 7 11 14 5 16 -6 2 -8
10 -5 19 4 11 3 14 -6 9 -6 -4 -24 -5 -40 -1 -22 5 -28 10 -24 26 3 10 3 19 0
19 -2 0 -7 -10 -10 -22z"/>
<path d="M1518 816 c-25 -19 -24 -40 0 -25 10 7 19 18 19 25 0 8 -1 14 -1 14
-1 0 -9 -7 -18 -14z"/>
<path d="M3016 818 c3 -5 10 -6 15 -3 13 9 11 12 -6 12 -8 0 -12 -4 -9 -9z"/>
<path d="M1447 808 c6 -11 31 -10 37 1 3 5 -5 8 -18 7 -13 0 -22 -4 -19 -8z"/>
<path d="M1596 781 c-3 -5 1 -11 9 -15 8 -3 15 -1 15 4 0 13 -18 22 -24 11z"/>
<path d="M1515 754 c-11 -17 -13 -30 -7 -36 6 -6 12 -5 17 3 5 8 4 10 -3 5
-16 -10 -15 0 4 29 9 14 14 25 11 25 -2 0 -12 -12 -22 -26z"/>
<path d="M1411 750 c-10 -5 -9 -8 2 -13 7 -3 19 -2 26 3 10 5 9 8 -2 13 -7 3
-19 2 -26 -3z"/>
<path d="M1350 738 c0 -9 5 -20 10 -23 13 -8 13 5 0 25 -8 13 -10 13 -10 -2z"/>
<path d="M1671 737 c2 -1 13 -9 24 -17 19 -14 19 -14 6 3 -7 9 -18 17 -24 17
-6 0 -8 -1 -6 -3z"/>
<path d="M1385 712 c-3 -9 -3 -13 1 -9 4 4 12 2 19 -3 8 -7 12 -5 12 5 0 21
-24 27 -32 7z"/>
<path d="M1430 703 c0 -9 6 -13 15 -9 22 8 19 -30 -2 -44 -11 -7 -12 -10 -4
-7 8 2 19 12 25 23 6 10 15 22 19 25 5 4 -5 11 -22 17 -26 9 -31 8 -31 -5z"/>
<path d="M1550 701 c0 -6 4 -13 10 -16 6 -3 7 1 4 9 -7 18 -14 21 -14 7z"/>
<path d="M1500 696 c0 -9 30 -14 35 -6 4 6 -3 10 -14 10 -12 0 -21 -2 -21 -4z"/>
<path d="M1395 670 c10 -11 23 -16 29 -12 7 4 5 8 -6 10 -10 2 -18 8 -18 13 0
5 -5 9 -12 9 -6 0 -3 -8 7 -20z"/>
<path d="M1580 680 c0 -5 5 -10 11 -10 5 0 7 5 4 10 -3 6 -8 10 -11 10 -2 0
-4 -4 -4 -10z"/>
<path d="M1650 671 c0 -5 5 -13 10 -16 6 -3 10 -2 10 4 0 5 -4 13 -10 16 -5 3
-10 2 -10 -4z"/>
<path d="M1720 644 c0 -8 5 -12 10 -9 6 4 8 11 5 16 -9 14 -15 11 -15 -7z"/>
<path d="M1695 640 c3 -5 8 -10 11 -10 2 0 4 5 4 10 0 6 -5 10 -11 10 -5 0 -7
-4 -4 -10z"/>
<path d="M1480 630 c0 -5 6 -10 14 -10 8 0 16 -6 19 -12 3 -9 9 -7 19 6 8 10
20 16 26 12 7 -4 12 -2 12 3 0 15 -37 14 -42 0 -3 -9 -10 -9 -26 0 -14 8 -22
8 -22 1z"/>
<path d="M1655 610 c3 -5 8 -10 11 -10 2 0 4 5 4 10 0 6 -5 10 -11 10 -5 0 -7
-4 -4 -10z"/>
<path d="M1720 609 c0 -5 5 -7 10 -4 6 3 10 8 10 11 0 2 -4 4 -10 4 -5 0 -10
-5 -10 -11z"/>
<path d="M1577 603 c-4 -3 -7 -11 -7 -17 0 -6 5 -5 12 2 6 6 9 14 7 17 -3 3
-9 2 -12 -2z"/>
<path d="M1608 593 c6 -2 18 -2 25 0 6 3 1 5 -13 5 -14 0 -19 -2 -12 -5z"/>
<path d="M1497 583 c-13 -13 -7 -20 17 -20 21 0 23 2 11 13 -15 16 -19 17 -28
7z"/>
<path d="M1650 570 c0 -15 5 -20 18 -18 9 2 17 10 17 18 0 8 -8 16 -17 18 -13
2 -18 -3 -18 -18z m25 0 c3 -5 1 -10 -4 -10 -6 0 -11 5 -11 10 0 6 2 10 4 10
3 0 8 -4 11 -10z"/>
<path d="M1700 565 c0 -14 4 -25 9 -25 4 0 6 11 3 25 -2 14 -6 25 -8 25 -2 0
-4 -11 -4 -25z"/>
<path d="M1610 566 c0 -11 27 -36 39 -36 6 0 11 -4 11 -10 0 -15 -21 -12 -42
7 -10 9 -18 12 -18 7 0 -5 9 -15 20 -22 28 -17 25 -30 -7 -35 -27 -4 -27 -4 3
-6 24 -1 33 5 42 24 15 33 15 45 0 45 -6 0 -20 7 -30 17 -10 9 -18 13 -18 9z"/>
<path d="M1480 540 c0 -5 5 -10 10 -10 6 0 10 5 10 10 0 6 -4 10 -10 10 -5 0
-10 -4 -10 -10z"/>
<path d="M2525 531 c3 -5 1 -12 -5 -16 -13 -8 -13 -26 1 -22 6 1 13 -10 14
-25 2 -15 17 -41 33 -58 27 -27 102 -157 103 -177 1 -5 7 -19 14 -33 15 -28
27 -58 31 -79 1 -8 7 -17 12 -20 5 -3 9 -13 10 -21 0 -8 3 -24 6 -35 2 -11 5
-26 5 -32 1 -9 22 -13 72 -13 68 0 70 1 63 23 -3 12 -11 24 -15 25 -5 2 -6 8
-3 13 3 5 -4 28 -15 49 -11 22 -19 40 -16 40 3 0 -3 9 -12 20 -9 10 -18 25
-19 33 -1 8 -14 34 -30 58 -16 24 -27 50 -25 58 1 7 -2 10 -7 7 -13 -8 -35 20
-27 34 3 5 1 10 -5 10 -16 0 -36 22 -44 48 -4 12 -11 20 -16 17 -4 -3 -10 4
-13 15 -3 12 -14 20 -27 20 -11 0 -19 4 -15 9 3 5 1 12 -4 16 -6 3 -8 13 -5
23 5 14 4 14 -4 2 -6 -8 -9 -17 -6 -21 6 -10 -24 -5 -33 6 -4 4 -3 5 3 2 7 -4
14 0 17 8 4 9 1 12 -9 8 -7 -3 -14 0 -14 6 0 6 -5 11 -11 11 -5 0 -8 -4 -4 -9z"/>
<path d="M3154 449 c-11 -19 -14 -59 -14 -219 1 -207 11 -233 35 -89 18 104
22 202 11 254 -3 11 -5 24 -5 29 -1 4 -8 5 -17 2 -14 -5 -15 -4 -4 9 7 9 10
18 7 21 -3 3 -8 0 -13 -7z"/>
<path d="M1865 430 c3 -5 8 -10 11 -10 2 0 4 5 4 10 0 6 -5 10 -11 10 -5 0 -7
-4 -4 -10z"/>
<path d="M1904 411 c3 -5 15 -7 26 -4 28 7 25 13 -6 13 -14 0 -23 -4 -20 -9z"/>
<path d="M1161 401 c-8 -5 -16 -24 -17 -43 -3 -26 -2 -29 7 -15 5 9 18 17 27
17 14 0 15 2 2 10 -8 5 -11 12 -7 16 3 4 13 1 22 -6 18 -15 20 1 3 18 -14 14
-19 15 -37 3z"/>
<path d="M1596 394 c-20 -19 -20 -25 -1 -18 20 8 19 -13 -1 -24 -9 -5 -14 -14
-10 -20 9 -14 55 28 49 45 -3 7 -9 10 -14 7 -5 -3 -9 0 -9 5 0 6 7 11 15 11 8
0 15 -4 15 -10 0 -5 5 -10 11 -10 8 0 8 5 -1 15 -16 19 -35 19 -54 -1z"/>
<path d="M1705 389 c-4 -6 -5 -12 -2 -15 2 -3 7 2 10 11 7 17 1 20 -8 4z"/>
<path d="M1735 391 c3 -5 0 -11 -7 -13 -7 -3 -8 -7 -3 -10 6 -3 15 0 22 7 10
10 9 14 -3 19 -8 3 -13 2 -9 -3z"/>
<path d="M1960 388 c0 -11 12 -10 30 2 12 7 10 9 -8 7 -12 0 -22 -5 -22 -9z"/>
<path d="M1888 383 c7 -3 16 -2 19 1 4 3 -2 6 -13 5 -11 0 -14 -3 -6 -6z"/>
<path d="M2015 379 c-4 -6 -5 -12 -2 -15 2 -3 7 2 10 11 7 17 1 20 -8 4z"/>
<path d="M1105 370 c-3 -5 -1 -10 4 -10 6 0 11 5 11 10 0 6 -2 10 -4 10 -3 0
-8 -4 -11 -10z"/>
<path d="M1650 364 c0 -6 6 -17 14 -23 10 -9 16 -8 26 4 11 13 10 14 -5 9 -10
-4 -21 -1 -26 7 -5 8 -9 9 -9 3z"/>
<path d="M1945 360 c3 -5 8 -10 11 -10 2 0 4 5 4 10 0 6 -5 10 -11 10 -5 0 -7
-4 -4 -10z"/>
<path d="M1920 350 c0 -5 5 -10 11 -10 5 0 7 5 4 10 -3 6 -8 10 -11 10 -2 0
-4 -4 -4 -10z"/>
<path d="M1951 321 c-7 -12 -9 -27 -5 -33 5 -8 2 -9 -10 -5 -10 4 -15 3 -11
-3 3 -6 15 -10 25 -10 16 0 18 -4 11 -22 -4 -13 -7 -29 -5 -36 1 -7 0 -8 -2
-3 -3 6 -11 9 -17 7 -7 -1 -9 -1 -6 1 13 7 -22 63 -39 63 -15 -1 -15 -2 1 -11
9 -5 17 -16 17 -24 0 -9 -6 -12 -17 -9 -15 5 -16 4 -3 -5 8 -5 16 -18 16 -28
1 -10 5 -31 9 -48 5 -21 4 -27 -3 -20 -5 6 -12 19 -15 30 -3 14 -5 10 -6 -11
-1 -23 5 -34 22 -41 21 -10 21 -10 -5 -10 -15 0 -25 3 -22 8 3 5 1 9 -5 9 -5
0 -13 -5 -16 -10 -3 -6 -2 -10 3 -10 5 0 18 -12 28 -28 13 -21 14 -24 2 -14
-13 10 -17 9 -24 -5 -19 -44 -13 -53 32 -53 28 0 44 5 44 12 0 9 3 9 12 0 7
-7 26 -12 43 -12 23 0 26 3 15 10 -9 6 -10 10 -3 10 6 0 15 -4 18 -10 3 -5 16
-10 28 -9 12 0 16 3 10 6 -7 2 -13 9 -13 15 0 6 7 8 15 5 11 -5 14 1 12 23 -2
30 -11 38 -22 20 -7 -12 -25 -4 -25 11 0 6 4 8 9 4 19 -11 23 17 5 36 -13 15
-15 22 -6 31 17 17 15 31 -3 24 -18 -7 -20 15 -2 33 10 11 10 13 0 7 -7 -4
-13 -2 -13 3 0 6 5 11 11 11 5 0 7 5 3 11 -5 8 -9 8 -14 -1 -4 -7 -16 -9 -29
-5 -22 7 -27 20 -11 30 6 3 10 1 10 -6 0 -7 3 -10 6 -6 3 3 3 15 -1 27 -5 16
-10 19 -20 10 -17 -14 -36 -5 -29 14 3 7 15 12 28 11 14 -2 23 2 23 11 0 11
-3 11 -14 2 -11 -9 -16 -9 -23 1 -6 11 -11 9 -19 -8z m39 -112 c0 -5 -4 -9 -8
-9 -5 0 -9 7 -9 15 0 8 4 12 9 9 4 -3 8 -9 8 -15z m-46 -28 c15 -16 15 -19 1
-24 -10 -4 -15 0 -15 12 0 11 -6 22 -12 24 -8 3 -8 6 -2 6 6 1 19 -7 28 -18z
m76 9 c0 -5 -5 -10 -11 -10 -5 0 -7 5 -4 10 3 6 8 10 11 10 2 0 4 -4 4 -10z
m-25 -40 c3 -5 2 -10 -4 -10 -5 0 -13 5 -16 10 -3 6 -2 10 4 10 5 0 13 -4 16
-10z m65 -56 c0 -4 -5 -3 -12 4 -9 9 -14 7 -24 -6 -8 -9 -14 -12 -14 -5 0 6 5
15 10 18 17 11 11 25 -7 18 -16 -6 -16 -5 -4 10 12 15 15 15 32 -7 11 -13 19
-28 19 -32z m-10 -50 c0 -8 -4 -14 -10 -14 -5 0 -10 5 -10 10 0 6 -8 10 -17
10 -15 0 -15 2 -4 9 18 12 41 3 41 -15z"/>
<path d="M1695 300 c-3 -5 -1 -10 4 -10 6 0 11 5 11 10 0 6 -2 10 -4 10 -3 0
-8 -4 -11 -10z"/>
<path d="M1259 271 c-1 -3 -1 -9 0 -13 0 -5 -3 -8 -9 -8 -5 0 -10 -9 -10 -20
0 -22 7 -25 30 -10 12 8 12 10 -5 11 -19 0 -18 1 3 11 25 12 30 35 7 35 -8 0
-16 -3 -16 -6z"/>
<path d="M1930 249 c0 -5 5 -7 10 -4 6 3 10 8 10 11 0 2 -4 4 -10 4 -5 0 -10
-5 -10 -11z"/>
<path d="M1215 210 c-3 -5 -1 -10 4 -10 6 0 11 5 11 10 0 6 -2 10 -4 10 -3 0
-8 -4 -11 -10z"/>
<path d="M1255 202 c-2 -3 -2 -8 1 -13 5 -9 34 -1 34 10 0 8 -27 10 -35 3z"/>
<path d="M1696 193 c-8 -20 9 -40 19 -22 6 8 4 10 -5 4 -9 -5 -10 -2 -5 14 8
25 0 29 -9 4z"/>
<path d="M3010 180 c-13 -8 -12 -10 3 -10 9 0 17 5 17 10 0 12 -1 12 -20 0z"/>
<path d="M1707 139 c7 -7 15 -10 18 -7 3 3 -2 9 -12 12 -14 6 -15 5 -6 -5z"/>
<path d="M1680 120 c-13 -8 -13 -10 2 -10 9 0 18 -4 20 -9 2 -5 12 -3 23 6 20
15 20 15 -2 10 -12 -3 -23 -1 -25 4 -2 4 -10 4 -18 -1z"/>
<path d="M2081 104 c0 -11 3 -14 6 -6 3 7 2 16 -1 19 -3 4 -6 -2 -5 -13z"/>
<path d="M3038 113 c7 -3 16 -2 19 1 4 3 -2 6 -13 5 -11 0 -14 -3 -6 -6z"/>
<path d="M1190 100 c0 -5 7 -10 16 -10 8 0 12 5 9 10 -3 6 -10 10 -16 10 -5 0
-9 -4 -9 -10z"/>
<path d="M3325 80 c-27 -52 -36 -82 -24 -78 10 3 52 108 44 108 -3 0 -11 -13
-20 -30z"/>
<path d="M3406 37 c-5 -15 -6 -31 -2 -34 11 -11 18 5 14 34 l-4 28 -8 -28z"/>
<path d="M1375 10 c3 -5 8 -10 11 -10 2 0 4 5 4 10 0 6 -5 10 -11 10 -5 0 -7
-4 -4 -10z"/>
</g>
</svg>
